Coordinates
version=1
nRows=16
nColumns=42
inDegrees=yes

Units are S.I. units (second, meters, Newtons, ...)
If the header above contains a line with 'inDegrees', this indicates whether rotational values are in degrees (yes) or radians (no).

endheader
time	pelvis_tilt	pelvis_list	pelvis_rotation	pelvis_tx	pelvis_ty	pelvis_tz	hip_flexion_r	hip_adduction_r	hip_rotation_r	knee_angle_r	knee_adduction_r	knee_angle_r_beta	ankle_angle_r	subtalar_angle_r	mtp_angle_r	hip_flexion_l	hip_adduction_l	hip_rotation_l	knee_angle_l	knee_adduction_l	knee_angle_l_beta	ankle_angle_l	subtalar_angle_l	mtp_angle_l	lumbar_extension	lumbar_bending	lumbar_rotation	arm_flex_r	arm_add_r	arm_rot_r	elbow_flex_r	pro_sup_r	wrist_flex_r	wrist_dev_r	arm_flex_l	arm_add_l	arm_rot_l	elbow_flex_l	pro_sup_l	wrist_flex_l	wrist_dev_l
      0.82000000	     -3.12485010	      0.13185131	      2.71430264	      0.10018948	      0.96104413	     -0.24732148	     30.63372787	     -1.51651892	    -10.29685284	     26.17329081	     -1.19373494	      0.45681010	      2.43108641	    -11.42093287	     -7.89536826	     -1.65189235	      3.65637002	     -3.71423480	     14.55196548	     -2.09592925	      0.25397971	     15.99842514	     -3.09163852	     -7.89536826	     -7.62524823	     -1.42411233	     -1.15114633	    -13.05254736	     -9.09026325	     -1.68758320	     31.46521795	     90.00000001	      0.00000000	      0.00000000	      7.86899274	    -11.85640020	     13.54088007	     38.06262929	     90.00000001	      0.00000000	      0.00000000
      0.83000000	     -3.18019752	      0.26583241	      2.74686357	      0.11436279	      0.95825989	     -0.24722687	     30.76500779	     -1.62046086	    -10.94150319	     22.83836805	     -1.26565896	      0.39860472	      2.48547993	     -9.66277742	     -7.88644763	     -2.60416893	      3.74315963	     -3.87168949	     14.45272188	     -2.01642201	      0.25224758	     16.63415852	     -3.11313335	     -7.88644763	     -7.54860152	     -1.47297810	     -1.20404481	    -13.13167046	     -9.05219481	     -1.98579712	     31.03944844	     90.00000001	      0.00000000	      0.00000000	      8.60912301	    -11.92381070	     14.08454631	     38.81132582	     90.00000001	      0.00000000	      0.00000000
      0.84000000	     -3.27723090	      0.53682439	      2.84196371	      0.12861423	      0.95529369	     -0.24727800	     31.09807532	     -1.99456087	    -12.57865606	     20.08281573	     -1.53058731	      0.35051126	      3.10863058	     -6.00171678	     -7.85587379	     -3.47385922	      4.00333949	     -4.10291727	     14.43235844	     -2.03191988	      0.25189217	     17.19736410	     -2.74258878	     -7.85587379	     -7.45368928	     -1.65028497	     -1.29854174	    -13.11593085	     -8.82934906	     -2.97810042	     30.48586173	     90.00000001	      0.00000000	      0.00000000	      9.27309043	    -12.32504252	     15.59117492	     39.77359121	     90.00000001	      0.00000000	      0.00000000
      0.85000000	     -3.53113641	      0.77304593	      2.92124694	      0.14278073	      0.95224293	     -0.24727521	     31.36629761	     -2.24268159	    -12.96403994	     17.32351005	     -1.34555008	      0.30235229	      2.84605682	     -4.88473203	     -7.85172393	     -4.14746442	      4.22214055	     -4.22366343	     14.47200950	     -2.00921782	      0.25258422	     17.57881675	     -2.76216416	     -7.85172393	     -7.19968686	     -1.78873296	     -1.44043210	    -13.23365460	     -8.84032882	     -3.07440604	     30.30753204	     90.00000001	      0.00000000	      0.00000000	      9.97630381	    -12.25735659	     15.65854019	     40.19240544	     90.00000001	      0.00000000	      0.00000000
      0.86000000	     -3.62143654	      0.92296403	      2.95310974	      0.15728383	      0.94941271	     -0.24713098	     31.45380740	     -2.36662230	    -13.60342807	     14.99676867	     -1.23415572	      0.26174299	      2.71076713	     -3.52253385	     -7.84633833	     -5.02823857	      4.30588101	     -4.40480706	     14.48813985	     -1.96112922	      0.25286574	     17.96991561	     -2.66501841	     -7.84633833	     -7.10256738	     -1.82073370	     -1.51953334	    -13.25865430	     -8.79940381	     -3.27001350	     29.95569927	     90.00000001	      0.00000000	      0.00000000	     10.58508073	    -12.24031122	     15.80994650	     40.69134681	     90.00000001	      0.00000000	      0.00000000
      0.87000000	     -3.61851112	      1.05321403	      3.03460514	      0.17201375	      0.94666693	     -0.24698953	     31.71170794	     -2.59420448	    -15.57861931	     13.68686800	     -1.37391978	      0.23888091	      3.34155671	     -0.09910071	     -7.81838104	     -5.95443688	      4.33723490	     -4.78215343	     14.61674997	     -1.99572807	      0.25511041	     18.45818381	     -1.93662443	     -7.81838104	     -7.10584978	     -1.82110729	     -1.61488171	    -13.08071393	     -8.59690035	     -4.35016326	     29.21525378	     90.00000001	      0.00000000	      0.00000000	     11.12867887	    -12.39778103	     16.40785421	     41.44196777	     90.00000001	      0.00000000	      0.00000000
      0.88000000	     -3.76359693	      1.12727140	      3.10860895	      0.18667299	      0.94401359	     -0.24680678	     31.90284336	     -2.64164714	    -16.09499986	     12.50787109	     -1.26975841	      0.21830353	      3.16253983	      0.42834764	     -7.81399654	     -6.67630611	      4.31581940	     -4.80245343	     14.84431263	     -1.98108197	      0.25908213	     18.61631509	     -1.90890813	     -7.81399654	     -6.96278556	     -1.74423354	     -1.76625068	    -13.09906941	     -8.61511860	     -4.45957077	     29.04593730	     90.00000001	      0.00000000	      0.00000000	     11.66132344	    -12.27495690	     16.37583885	     41.72054358	     90.00000001	      0.00000000	      0.00000000
      0.89000000	     -3.94211865	      1.21949207	      3.10624909	      0.20146592	      0.94147764	     -0.24664156	     32.23594263	     -2.69148565	    -16.43418286	     12.10134792	     -1.20471647	      0.21120837	      3.17249190	      0.46378754	     -7.81316590	     -7.35503635	      4.34965316	     -4.80004757	     15.08984451	     -2.02060258	      0.26336747	     18.62731292	     -1.89173047	     -7.81316590	     -6.76659959	     -1.67202901	     -1.82569815	    -13.11903550	     -8.71448211	     -4.50814070	     28.94514245	     90.00000001	      0.00000000	      0.00000000	     12.16555764	    -12.16862170	     16.34262189	     41.96568922	     90.00000001	      0.00000000	      0.00000000
      0.90000000	     -3.89589722	      0.96904539	      3.26881055	      0.21662041	      0.93945756	     -0.24625431	     32.34425217	     -2.44086926	    -17.81536040	     12.20126329	     -1.50130592	      0.21295222	      3.26507204	      2.11234649	     -7.78763865	     -8.07486461	      3.86804314	     -4.90728583	     15.73114788	     -2.05090003	      0.27456033	     18.79589025	     -1.34876485	     -7.78763865	     -6.80738210	     -1.20895170	     -2.04077609	    -12.73988162	     -8.48264512	     -5.66720672	     27.98341471	     90.00000001	      0.00000000	      0.00000000	     12.44056373	    -11.93159401	     15.74118048	     42.40689742	     90.00000001	      0.00000000	      0.00000000
      0.91000000	     -3.94844741	      0.75695910	      3.33621058	      0.23179250	      0.93758362	     -0.24587663	     32.51675026	     -2.13723361	    -18.13874078	     12.72226865	     -1.72103294	      0.22204548	      3.07458758	      1.85597772	     -7.78414475	     -8.65896781	      3.47462654	     -4.74850008	     16.43500469	     -2.05395280	      0.28684494	     18.54618378	     -1.41664480	     -7.78414475	     -6.74265193	     -0.77139669	     -2.12440762	    -12.72371690	     -8.55289285	     -5.78280353	     27.82903239	     90.00000001	      0.00000000	      0.00000000	     12.77920341	    -11.75432259	     15.64049162	     42.58238841	     90.00000001	      0.00000000	      0.00000000
      0.92000000	     -3.97459503	      0.55208307	      3.38235967	      0.24719290	      0.93610564	     -0.24557341	     32.55806665	     -1.77409081	    -17.79838783	     13.48090716	     -1.97928962	      0.23528622	      2.88817143	      1.80684091	     -7.78337719	     -9.26014279	      3.19758561	     -4.32465779	     17.15422399	     -2.22110926	      0.29939769	     18.27186167	     -1.35718178	     -7.78337719	     -6.68467980	     -0.31061067	     -2.21766781	    -12.73632913	     -8.65972711	     -5.83940342	     27.72700086	     90.00000001	      0.00000000	      0.00000000	     12.99075071	    -11.60588671	     15.59799764	     42.70127781	     90.00000001	      0.00000000	      0.00000000
      0.93000000	     -4.10626520	      0.09360055	      3.46746139	      0.26254096	      0.93480036	     -0.24495012	     32.92219184	     -1.22905405	    -18.18649053	     14.93097000	     -2.39153894	      0.26059459	      2.11293856	      0.51680503	     -7.76846944	     -9.34525376	      2.42126492	     -4.31629001	     18.60336087	     -2.10625756	      0.32468990	     17.39002004	     -1.94387888	     -7.76846944	     -6.53075180	      0.40248246	     -2.34852735	    -12.27313425	     -8.58134760	     -6.73030706	     26.87981639	     90.00000001	      0.00000000	      0.00000000	     13.08848817	    -11.10936171	     14.25861293	     42.89585192	     90.00000001	      0.00000000	      0.00000000
      0.94000000	     -4.02060191	     -0.36111737	      3.49572120	      0.27825142	      0.93411632	     -0.24432690	     32.90760160	     -0.61023550	    -18.08535244	     16.40420355	     -2.78646850	      0.28630736	      1.62167630	     -0.10664839	     -7.76514089	     -9.65520768	      1.73621932	     -4.15417044	     20.04688049	     -2.13693049	      0.34988407	     16.37380110	     -2.24041012	     -7.76514089	     -6.60319654	      1.15443588	     -2.34442429	    -12.16359648	     -8.68920269	     -6.92358111	     26.75410408	     90.00000001	      0.00000000	      0.00000000	     13.20403352	    -10.87357506	     14.01978933	     42.98358953	     90.00000001	      0.00000000	      0.00000000
      0.95000000	     -4.11042786	     -0.83291146	      3.49293931	      0.29386493	      0.93375082	     -0.24364586	     32.90666921	      0.10966521	    -16.87257503	     17.76860492	     -2.91129514	      0.31012066	      0.36656884	     -2.66420846	     -7.74454220	     -9.60091976	      1.04940069	     -3.72846558	     21.77936215	     -2.03592319	      0.38012158	     14.75198376	     -3.48467798	     -7.74454220	     -6.48505311	      1.91664630	     -2.38392183	    -11.76675877	     -8.60950609	     -8.05185894	     26.16812862	     90.00000001	      0.00000000	      0.00000000	     13.13187871	    -10.27451580	     12.38375972	     42.99292992	     90.00000001	      0.00000000	      0.00000000
      0.96000000	     -3.99097426	     -1.39684921	      3.49018246	      0.30976151	      0.93390412	     -0.24286114	     32.76085028	      0.87509412	    -16.58832204	     19.36680278	     -3.25400112	      0.33801447	     -0.25096267	     -3.31818910	     -7.74098399	     -9.53087733	      0.21056880	     -3.80458132	     23.86382314	     -2.06203763	      0.41650229	     12.97418767	     -4.00247766	     -7.74098399	     -6.58825874	      2.79181438	     -2.29696301	    -11.63659378	     -8.72914194	     -8.20648393	     26.05572772	     90.00000001	      0.00000000	      0.00000000	     13.09706590	    -10.03660228	     12.20201694	     43.05630845	     90.00000001	      0.00000000	      0.00000000
      0.97000000	     -4.02451089	     -1.91602798	      3.42246865	      0.32551797	      0.93448373	     -0.24195683	     32.49797846	      1.70797964	    -14.88081996	     20.61115740	     -3.10878271	      0.35973256	     -1.61093189	     -6.36446623	     -7.72220403	     -9.16646344	     -0.55354148	     -3.39816917	     26.11890033	     -1.83500882	      0.45586081	     10.43975991	     -5.87578559	     -7.72220403	     -6.54816738	      3.59395316	     -2.20074699	    -11.24355929	     -8.69624144	     -9.09649372	     25.57670795	     90.00000001	      0.00000000	      0.00000000	     12.91258389	     -9.49569032	     10.80245716	     43.06877502	     90.00000001	      0.00000000	      0.00000000
